# xmcd CD database file
#
# Track frame offsets:
#	150
#	16611
#	39661
#	58065
#	73832
#	94810
#	111480
#	131597
#
# Disc length: 2053 seconds
#
# Revision: 0
# Processed by: cddbd v1.5PL3 Copyright (c) Steve Scherf et al.
# Submitted via: CDex 1.50beta10
#
DISCID=6e080308
DTITLE=Robert Carl Blank - Steps
DYEAR=2003
DGENRE=Blues
TTITLE0=Perpetual Blues Machine [Keb'Mo]
TTITLE1=Walking in Memphis [M. Cohn]
TTITLE2=Galileo [Indigo Girls]
TTITLE3=Anybody Seen my Girl [Keb'Mo]
TTITLE4=Message in a Bottle [Sting]
TTITLE5=Hang [Matchbox 20]
TTITLE6=Sucker [J.Mayer]
TTITLE7=Comfortable [J. Mayer]
EXTD=YEAR: 2003
EXTT0=
EXTT1=
EXTT2=
EXTT3=
EXTT4=
EXTT5=
EXTT6=
EXTT7=
PLAYORDER=
